<svg width="186" height="51" viewBox="0 0 186 51" fill="none" xmlns="http://www.w3.org/2000/svg">
  <path
    d="M6.57605 6.14422C9.69088 4.4875 13.1683 4.57816 15.4271 5.16096L15.4645 5.1706L15.5017 5.18487C16.327 5.49156 17.6021 6.04774 18.7691 6.73014C19.321 7.05291 19.8623 7.41486 20.3266 7.79935C20.4889 7.26114 20.7137 6.70743 20.9635 6.18099C21.5065 5.03613 22.1879 3.95175 22.655 3.29448L22.6793 3.26064L22.7059 3.22924C24.155 1.5987 27.1687 -0.0308277 30.4646 0.000442985C33.8455 0.0327299 37.4249 1.80951 39.907 6.81426C41.4368 9.89932 41.3807 13.349 40.613 16.7906C39.8459 20.2284 38.3468 23.7498 36.8945 27.0269C35.6879 29.7495 34.5821 32.4008 33.4375 34.7492C32.3683 36.9428 31.2352 38.9256 29.9092 40.5354L30.1393 41.4368L29.3278 41.2197L28.708 41.9309L28.4431 40.9782C23.416 39.588 16.1987 36.8649 10.3065 33.026C4.29083 29.1065 -0.64509 23.8211 0.0688642 17.4005C0.753975 11.2426 3.41231 7.82722 6.57605 6.14422Z"
    fill="#D85175" />
  <path
    d="M21.0013 6.59486C22.7121 1.02507 28.501 -0.422754 32.6688 0.225719C33.7276 0.390515 35.6215 1.435 36.0013 2.09486C36.172 2.39195 30.2371 2.98403 27.0013 6.59486C24.3406 9.56403 24.0013 11.0954 26.2513 17.8448C22.9782 13.3146 20.6802 12.3879 20.4871 9.80726C18.4012 10.4094 8.77305 11.5029 11.2513 20.8448C13.0218 27.5182 17.251 32.8447 29.0976 40.3801C19.1184 37.7107 -0.509134 29.3948 0.815792 17.483C2.14086 5.57136 10.984 4.79054 15.2401 5.88881C16.6281 6.40443 19.3621 7.66406 20.493 8.99867C20.545 8.32932 20.7087 7.54793 21.0013 6.59486Z"
    fill="black" fill-opacity="0.3" />
  <path
    d="M31.0033 38.4316L35.8036 41.7744L32.7012 41.7759L31.0033 44.0038L29.3056 43.4472L28.1733 44.562L26.4756 45.1186V39.5464L31.0033 38.4316Z"
    fill="white" />
  <path fill-rule="evenodd" clip-rule="evenodd"
    d="M30.4646 0.00043959C33.8452 0.0327623 37.4249 1.8105 39.9069 6.81489C41.4366 9.89964 41.3805 13.3493 40.6129 16.7906C38.8809 24.5536 34.9415 34.4259 29.9094 40.5356L30.1393 41.438L29.3279 41.2197L28.7082 41.9316L28.443 40.9794C23.7302 39.676 17.0925 37.2005 11.426 33.7329C5.95308 30.2801 -0.39447 25.182 0.0192072 17.999C0.408507 13.3274 2.2239 8.4591 6.57585 6.144C9.69059 4.48748 13.1692 4.57833 15.4279 5.16108L15.4646 5.17134L15.5012 5.18598C17.1971 5.81619 18.923 6.63722 20.3264 7.79926C20.8128 6.18684 21.6852 4.65988 22.6554 3.29487L22.6789 3.26118L22.7067 3.22896C24.1563 1.59882 27.1693 -0.0307101 30.4646 0.00043959ZM30.4366 3.00043C26.0515 2.95884 23.9842 6.07134 22.8429 9.84273C24.7915 11.4567 26.3 13.8104 28.2819 17.0658C28.7115 17.7733 28.4867 18.6964 27.7794 19.1269C27.0721 19.5569 26.1492 19.3312 25.7184 18.6245C22.2901 12.9932 15.859 5.18712 8.41862 8.58003C4.89892 10.3161 3.46527 14.0007 3.04996 17.7324C2.54286 22.2927 6.03795 26.6648 11.9445 30.5131C17.1219 33.8863 23.4732 36.3873 28.2278 37.7949C32.4719 31.8782 36.0912 23.2797 37.6848 16.1371C38.3761 13.0376 38.3217 10.3719 37.2189 8.14789C35.1897 4.05641 32.5812 3.0211 30.4366 3.00043Z"
    fill="white" />
  <path
    d="M61.7219 36.7777C65.58 35.9929 69.141 36.7692 72.1632 38.5678C72.5189 38.7796 72.6354 39.2403 72.4241 39.5961C72.2123 39.9517 71.753 40.0683 71.3972 39.8568C68.6706 38.2341 65.4864 37.5435 62.0207 38.2485C58.5453 38.9556 54.7217 41.0808 50.762 45.2064C47.4573 48.6496 42.6897 49.5379 38.3561 48.4233C34.0896 47.3256 30.1707 44.2722 28.3601 39.6942L27.1706 40.1703C26.7861 40.324 26.3504 40.1373 26.1965 39.7528C26.0426 39.3682 26.2295 38.9326 26.6139 38.7787L30.3639 37.2787C30.7485 37.1248 31.1843 37.3116 31.338 37.6962C31.4918 38.0808 31.3052 38.5165 30.9206 38.6703L29.7516 39.1362C31.3685 43.23 34.8809 45.9799 38.7297 46.9701C42.6369 47.9752 46.815 47.1525 49.6794 44.1679C53.7906 39.8842 57.8729 37.5609 61.7219 36.7777Z"
    fill="url(#paint0_linear_0_4373)" />
  <path
    d="M171.048 34.9777C169.202 34.9777 167.513 34.5097 165.978 33.5737C164.471 32.6118 163.262 31.3377 162.351 29.7517C161.468 28.1397 161.025 26.3587 161.025 24.4087C161.025 22.9527 161.285 21.5877 161.805 20.3137C162.326 19.0137 163.04 17.8827 163.95 16.9207C164.861 15.9327 165.914 15.1657 167.109 14.6197C168.332 14.0477 169.644 13.7617 171.048 13.7617C172.817 13.7617 174.194 14.0997 175.182 14.7757C176.171 15.4257 176.937 16.2967 177.483 17.3887V14.1907H182.709V34.4707H177.6V31.1557C177.054 32.2998 176.274 33.2227 175.26 33.9247C174.272 34.6267 172.868 34.9777 171.048 34.9777ZM171.906 30.2197C173.076 30.2197 174.077 29.9598 174.909 29.4397C175.767 28.8937 176.43 28.1787 176.898 27.2947C177.366 26.4108 177.6 25.4487 177.6 24.4087C177.6 23.3427 177.366 22.3677 176.898 21.4837C176.43 20.5998 175.767 19.8847 174.909 19.3387C174.077 18.7927 173.076 18.5197 171.906 18.5197C170.789 18.5197 169.8 18.7927 168.942 19.3387C168.11 19.8588 167.46 20.5608 166.992 21.4447C166.524 22.3287 166.29 23.3037 166.29 24.3697C166.29 25.3837 166.524 26.3457 166.992 27.2557C167.46 28.1397 168.11 28.8547 168.942 29.4007C169.8 29.9467 170.789 30.2197 171.906 30.2197Z"
    fill="white" />
  <path
    d="M149.657 34.4714V14.1914H154.766V18.0524C155.105 16.5964 155.793 15.4915 156.833 14.7374C157.874 13.9574 159.278 13.6194 161.045 13.7234V18.6764H160.304C158.796 18.6764 157.523 19.1575 156.482 20.1194C155.442 21.0814 154.922 22.4074 154.922 24.0974V34.4714H149.657Z"
    fill="white" />
  <path
    d="M136.524 34.9776C134.444 34.9776 132.585 34.4966 130.947 33.5346C129.309 32.5727 128.022 31.2986 127.086 29.7126C126.176 28.1006 125.721 26.3196 125.721 24.3696C125.721 22.4196 126.176 20.6387 127.086 19.0266C128.022 17.4146 129.309 16.1276 130.947 15.1656C132.585 14.2037 134.444 13.7227 136.524 13.7227C138.63 13.7227 140.489 14.2037 142.101 15.1656C143.739 16.1276 145.013 17.4146 145.923 19.0266C146.859 20.6387 147.327 22.4196 147.327 24.3696C147.327 26.3196 146.859 28.1006 145.923 29.7126C145.013 31.2986 143.739 32.5727 142.101 33.5346C140.489 34.4966 138.63 34.9776 136.524 34.9776ZM136.524 30.1806C137.642 30.1806 138.617 29.9207 139.449 29.4006C140.281 28.8546 140.918 28.1396 141.36 27.2556C141.828 26.3717 142.062 25.4096 142.062 24.3696C142.062 23.3036 141.828 22.3286 141.36 21.4446C140.918 20.5607 140.281 19.8587 139.449 19.3386C138.617 18.7926 137.642 18.5196 136.524 18.5196C135.406 18.5196 134.431 18.7926 133.599 19.3386C132.767 19.8587 132.117 20.5607 131.649 21.4446C131.207 22.3286 130.986 23.3036 130.986 24.3696C130.986 25.4096 131.207 26.3717 131.649 27.2556C132.117 28.1396 132.767 28.8546 133.599 29.4006C134.431 29.9207 135.406 30.1806 136.524 30.1806Z"
    fill="white" />
  <path
    d="M111.71 34.977C109.864 34.977 108.174 34.509 106.641 33.573C105.132 32.611 103.923 31.337 103.014 29.751C102.129 28.139 101.688 26.358 101.688 24.408C101.688 22.9519 101.947 21.5869 102.468 20.313C102.987 19.0129 103.702 17.8819 104.613 16.92C105.522 15.9319 106.575 15.165 107.771 14.619C108.993 14.047 110.306 13.761 111.71 13.761C113.452 13.761 114.817 14.086 115.806 14.736C116.793 15.386 117.56 16.2439 118.106 17.31V6H123.372V34.47H118.263V31.155C117.717 32.2991 116.937 33.222 115.923 33.924C114.934 34.626 113.53 34.977 111.71 34.977ZM112.569 30.219C113.739 30.219 114.739 29.959 115.572 29.439C116.43 28.893 117.093 28.1779 117.561 27.294C118.029 26.41 118.263 25.4479 118.263 24.408C118.263 23.3419 118.029 22.3669 117.561 21.483C117.093 20.599 116.43 19.884 115.572 19.338C114.739 18.792 113.739 18.519 112.569 18.519C111.45 18.519 110.462 18.792 109.604 19.338C108.772 19.8581 108.123 20.56 107.655 21.444C107.187 22.3279 106.953 23.3029 106.953 24.369C106.953 25.383 107.187 26.3449 107.655 27.255C108.123 28.139 108.772 28.854 109.604 29.4C110.462 29.946 111.45 30.219 112.569 30.219Z"
    fill="white" />
  <path
    d="M80.417 34.4706V14.1907H85.604V17.1546C86.67 14.8667 88.737 13.7227 91.805 13.7227C93.261 13.7227 94.574 14.0607 95.744 14.7367C96.914 15.4127 97.8369 16.3746 98.513 17.6226C99.189 18.8706 99.527 20.3526 99.527 22.0686V34.4706H94.262V23.3556C94.262 21.5876 93.8589 20.3136 93.053 19.5336C92.247 18.7277 91.194 18.3246 89.894 18.3246C88.776 18.3246 87.788 18.7277 86.93 19.5336C86.0979 20.3136 85.682 21.5876 85.682 23.3556V34.4706H80.417Z"
    fill="white" />
  <path
    d="M74.6512 12.5135C73.7671 12.5135 73.0132 12.2145 72.3892 11.6165C71.7911 10.9925 71.4922 10.2515 71.4922 9.3935C71.4922 8.56149 71.7911 7.8465 72.3892 7.2485C73.0132 6.6245 73.7671 6.3125 74.6512 6.3125C75.5611 6.3125 76.3151 6.6245 76.9132 7.2485C77.5111 7.8465 77.8102 8.56149 77.8102 9.3935C77.8102 10.2775 77.5111 11.0185 76.9132 11.6165C76.3151 12.2145 75.5611 12.5135 74.6512 12.5135ZM72.0382 34.4705V14.1905H77.3032V34.4705H72.0382Z"
    fill="white" />
  <path
    d="M49.5 34.468V7.16797H54.96V18.439L63.462 7.16797H70.599L60.03 19.96L71.379 34.468H64.398L54.96 22.417V34.468H49.5Z"
    fill="white" />
  <defs>
    <linearGradient id="paint0_linear_0_4373" x1="26.1426" y1="42.675" x2="72.5294" y2="42.675"
      gradientUnits="userSpaceOnUse">
      <stop stop-color="white" />
      <stop offset="1" stop-color="white" stop-opacity="0" />
    </linearGradient>
  </defs>
</svg>