<svg width="286" height="67" viewBox="0 0 286 67" fill="none" xmlns="http://www.w3.org/2000/svg">
<path d="M280.129 25.0273C283.762 27.7738 285.622 31.7606 285.622 37.0764V56.9219C285.622 58.3395 285.268 59.4912 284.559 60.4658C283.85 61.4403 282.787 62.3263 281.281 63.2122C277.471 65.5157 272.067 66.6675 265.068 66.6675C258.512 66.6675 253.373 65.5157 249.829 63.035C246.286 60.5544 244.514 57.0105 244.514 52.2263C244.514 48.1509 245.665 45.05 248.146 42.8351C250.538 40.7088 254.259 39.2913 259.398 38.7597L271.004 37.5194V36.8992C271.004 33.7097 268.08 32.115 262.233 32.115C259.664 32.115 256.74 32.558 253.462 33.3553C252.222 33.7097 251.424 33.7983 250.893 33.7983C249.652 33.7983 248.766 33.3553 248.146 32.3808C247.437 31.4062 247.172 30.1659 247.172 28.7483C247.172 27.2422 247.437 26.0019 248.146 25.1159C248.855 24.2299 250.007 23.4326 251.69 22.7238C254.702 21.4835 258.955 20.8633 264.359 20.8633C271.181 20.8633 276.408 22.2808 280.129 25.0273ZM268.523 55.4158C269.675 55.2386 270.561 54.8842 271.093 54.5298V47.4421L264.714 47.9737C260.904 48.2395 259.043 49.4798 259.043 51.6947C259.043 54.3526 260.993 55.6816 265.068 55.6816C266.22 55.6816 267.371 55.593 268.523 55.4158Z" fill="#006FEE"/>
<path d="M229.293 61.0833C229.293 63.121 228.761 64.4499 227.787 65.1587C226.724 65.8675 225.572 66.1333 224.332 66.0447L222.56 65.9561C219.547 65.9561 217.333 65.4245 216.092 64.3613C214.852 63.2982 214.232 61.5263 214.232 58.8684V32.2895C214.232 29.986 215.029 28.0369 216.801 26.5308C218.484 25.1132 221.231 23.6957 225.129 22.4554C228.584 21.4808 231.951 20.9492 235.229 20.9492C241.342 20.9492 244.443 23.3413 244.443 27.9483C244.443 28.6571 244.354 29.1001 244.354 29.1887C244.089 31.315 242.494 32.4667 239.57 32.7325C237.621 32.9097 235.761 33.2641 233.811 33.6185C231.862 34.0614 230.356 34.5044 229.293 34.9474V61.0833Z" fill="#006FEE"/>
<path d="M205.31 60.643C201.146 64.7184 195.475 66.6675 188.388 66.6675C181.3 66.6675 175.718 64.6298 171.643 60.4658C167.302 56.4789 165.176 50.8974 165.176 43.7211C165.176 40.3544 165.707 37.165 166.859 34.3299C167.922 31.4948 169.517 29.0141 171.643 26.9764C175.896 22.901 181.477 20.8633 188.388 20.8633C191.754 20.8633 194.855 21.3949 197.779 22.458C200.614 23.5212 203.095 25.1159 205.221 27.065C207.259 29.1027 208.853 31.5834 209.917 34.4185C210.98 37.2536 211.6 40.3544 211.6 43.7211C211.6 50.986 209.474 56.5675 205.31 60.643ZM182.629 51.9605C184.047 53.9096 185.996 54.8842 188.476 54.8842C190.957 54.8842 192.818 53.9096 194.146 51.9605C195.475 50.0114 196.184 47.2649 196.184 43.7211C196.184 40.1772 195.475 37.5194 194.146 35.5702C192.729 33.6211 190.868 32.6466 188.388 32.6466C185.907 32.6466 183.958 33.6211 182.629 35.5702C181.211 37.5194 180.591 40.1772 180.591 43.7211C180.591 47.2649 181.211 50.0114 182.629 51.9605Z" fill="#006FEE"/>
<path d="M124.31 26.8901C128.386 22.9033 134.056 20.8655 141.232 20.8655C143.713 20.8655 145.839 21.2199 147.434 21.9287V11.6515C147.434 9.70243 147.877 8.37349 148.763 7.66472C149.649 6.95595 150.889 6.60156 152.307 6.60156L154.256 6.69016C157.268 6.69016 159.394 7.22174 160.635 8.28489C161.875 9.34804 162.495 11.12 162.495 13.7779V55.7724C162.495 58.1645 161.609 60.025 160.015 61.4426C158.331 62.8601 155.673 64.1891 151.952 65.3408C149.206 66.2268 146.105 66.6698 142.561 66.6698C134.942 66.6698 128.917 64.632 124.576 60.5566C120.235 56.4812 118.109 50.8996 118.109 43.7234C118.109 36.5471 120.146 30.9655 124.31 26.8901ZM135.828 35.4839C134.145 37.3444 133.347 40.0909 133.347 43.7234C133.347 47.4444 134.145 50.1909 135.739 52.0514C137.334 53.9119 139.638 54.7979 142.65 54.7979C144.776 54.7979 146.371 54.2663 147.523 53.2031V33.712C146.371 33.0032 144.953 32.6488 143.27 32.6488C139.992 32.6488 137.511 33.6234 135.828 35.4839Z" fill="#F871A0"/>
<path d="M100.406 37.9623C100.406 36.1904 99.8744 34.8615 98.8999 33.9755C97.8367 33.0896 96.4192 32.6466 94.6473 32.6466C91.9894 32.6466 89.8631 33.2667 88.1798 34.4185V61.0859C88.1798 63.1237 87.6482 64.4526 86.6736 65.1614C85.6105 65.8701 84.4587 66.1359 83.2184 66.0473L81.4464 65.9587C78.4342 65.9587 76.2193 65.4272 74.9789 64.364C73.7386 63.3008 73.1184 61.5289 73.1184 58.871V32.2922C73.1184 30.8747 73.3842 29.6343 74.0044 28.5711C74.5359 27.5966 75.5105 26.622 76.928 25.6475C79.0544 24.2299 81.7122 23.0782 84.8131 22.1922C87.8254 21.3063 91.1034 20.8633 94.6473 20.8633C101.292 20.8633 106.431 22.3694 110.063 25.2931C113.607 28.2168 115.467 32.2922 115.467 37.4308V61.0859C115.467 63.1237 114.936 64.4526 113.961 65.1614C112.898 65.8701 111.746 66.1359 110.506 66.0473L108.734 65.9587C105.722 65.9587 103.507 65.4272 102.267 64.364C101.026 63.3008 100.406 61.5289 100.406 58.871V37.9623Z" fill="#F871A0"/>
<path d="M56.3008 4.56326C57.807 3.05713 59.7561 2.25977 62.2368 2.25977C64.6289 2.25977 66.578 3.05713 68.1727 4.56326C69.6788 6.0694 70.4762 7.92992 70.4762 10.2334C70.4762 12.5369 69.6788 14.486 68.1727 15.9922C66.578 17.4983 64.6289 18.2071 62.2368 18.2071C59.7561 18.2071 57.807 17.4983 56.3008 15.9922C54.7061 14.486 53.9973 12.5369 53.9973 10.2334C53.9973 7.92992 54.7061 6.0694 56.3008 4.56326ZM69.7674 61.0876C69.7674 63.1253 69.2358 64.4543 68.3499 65.0744C67.4639 65.7832 66.3122 66.049 64.9832 65.9604H63.0341C60.0219 65.9604 57.8069 65.4288 56.5666 64.3657C55.3263 63.3025 54.7061 61.5306 54.7061 58.8727V26.8895C54.7061 24.9404 55.1491 23.6114 56.035 22.9027C56.921 22.2825 58.0727 21.9281 59.4903 21.9281L61.4394 22.0167C64.4517 22.0167 66.578 22.5483 67.8183 23.6114C69.0587 24.6746 69.7674 26.5351 69.7674 29.1044V61.0876Z" fill="#F871A0"/>
<path fill-rule="evenodd" clip-rule="evenodd" d="M49.0139 52.6221C52.0744 55.6826 52.0744 60.6616 49.0139 63.7677C45.9534 66.8282 40.9744 66.8282 37.8682 63.7677L18.7745 44.674L15.714 41.5678V58.1949C15.714 62.5344 12.1967 66.0517 7.85721 66.0517C5.66462 66.0517 3.70043 65.1838 2.28438 63.7677C0.868339 62.3517 0.000439945 60.3875 0.000439945 58.1949V7.85677C-0.0452389 3.51727 3.47204 0 7.81153 0C12.151 0 15.6683 3.51727 15.6683 7.85677V25.4888L37.9139 3.33456C40.9744 0.274073 45.9534 0.274073 49.0596 3.33456C52.12 6.39504 52.12 11.374 49.0596 14.4345L35.4929 28.0012C34.351 28.0468 33.1176 28.3209 32.0213 28.0925C30.4226 27.7271 28.7781 27.4073 27.2251 26.8135C26.9053 26.7221 26.951 26.7678 26.8139 26.7221C24.8498 26.4024 24.8041 28.7777 24.8041 28.7777C24.7584 29.2802 25.0325 29.737 25.3979 30.1024C26.1288 30.7876 27.2707 31.2444 28.1843 31.6555C28.9609 32.0209 29.8288 32.1123 30.5139 32.6147C30.6053 32.6604 30.6966 32.7518 30.7423 32.8431C30.4683 33.0715 30.1942 33.2542 30.0115 33.3913C29.1892 33.9851 28.1386 34.3505 27.1794 34.7616C26.2658 35.1271 25.3979 35.5382 24.4843 35.9036C23.7991 36.2234 23.114 36.4974 22.4745 36.9085C22.0177 37.1826 21.5152 37.4567 21.1041 37.8221C20.8757 38.0505 20.6016 38.2789 20.4646 38.5987C20.2819 38.9641 20.2362 39.2838 20.3732 39.695C20.6016 40.4258 21.5152 40.4715 22.109 40.3801C24.6214 40.0604 26.7226 38.6443 29.1436 38.1419C29.6917 38.0048 29.9658 38.1419 30.0115 38.3703C29.9201 38.4616 29.8288 38.553 29.6917 38.6443C27.2707 40.1061 24.7127 41.4764 22.5201 43.2579C22.2004 43.4863 21.9263 43.7604 21.6522 44.0801C21.4695 44.3085 21.2868 44.5369 21.1498 44.811C21.0127 45.0394 20.967 45.2221 20.967 45.4505C20.83 46.2727 21.8349 46.6381 22.5201 46.6381C23.4794 46.6381 24.4386 46.1814 25.2609 45.7246C27.2707 44.6283 29.0522 43.2122 31.1534 42.253C31.8386 41.9332 32.0213 42.1159 31.93 42.39C31.7929 42.6184 31.5645 42.8925 31.4275 43.0295C30.7423 43.7147 27.6818 46.3641 26.9967 47.1406C26.6769 47.506 26.4485 47.6888 26.2658 48.1455L26.1744 48.3283C26.0374 48.5567 25.9917 48.8307 25.946 49.0591C25.9004 49.3332 25.8547 49.6073 26.0374 49.8357C26.2201 50.1097 26.4942 50.2011 26.8139 50.2468C27.5905 50.3381 28.2757 49.7443 28.8238 49.2875C29.7374 48.6023 33.3003 45.4505 34.4423 44.7196C35.5386 44.0344 35.4929 44.6283 35.1732 45.3134C35.0361 45.6332 34.8078 45.9986 34.6707 46.227C34.488 46.5011 34.2139 47.0036 33.9398 47.5517C33.8942 47.6431 33.8485 47.6888 33.8028 47.7801C33.7571 47.8715 33.7115 47.9628 33.6658 48.0542C33.6658 48.0542 33.6658 48.0999 33.6201 48.1455C33.5744 48.2826 33.5287 48.3739 33.4374 48.511C33.4374 48.5567 33.3917 48.6023 33.3917 48.648C33.346 48.7394 33.3003 48.8307 33.2547 48.8764C33.209 48.9678 33.1633 49.0134 33.1633 49.1048C33.1176 49.1505 33.1176 49.2418 33.072 49.2875C33.072 49.3332 33.0263 49.3332 33.0263 49.3789C32.8892 49.6986 32.7522 49.9727 32.7065 50.0641C32.5695 50.4295 32.4324 50.7949 32.3868 51.1604C32.3411 51.4801 32.3411 51.7999 32.4781 52.1196C32.5695 52.3023 32.7522 52.485 32.9806 52.5307C33.3917 52.6221 33.8485 52.3023 34.1682 52.0739C35.4016 50.5208 36.6349 48.9221 37.8226 47.3233C38.6905 46.1814 39.467 44.948 40.4719 43.8974L49.0139 52.6221Z" fill="#F871A0"/>
</svg>
