<svg width="16" height="16" viewBox="0 0 16 16" fill="none" xmlns="http://www.w3.org/2000/svg">
<path opacity="0.16" d="M1 7.53027C1 6.66952 1.36972 5.85024 2.01514 5.28075L6.01514 1.75134C7.14921 0.750692 8.8508 0.750693 9.98487 1.75134L13.9849 5.28075C14.6303 5.85024 15 6.66952 15 7.53027V12C15 13.6568 13.6569 15 12 15H4C2.34315 15 1 13.6568 1 12V7.53027Z" fill="#393B3F"/>
<path d="M6.01465 1.75122C7.14872 0.75057 8.85128 0.75057 9.98535 1.75122L13.9854 5.28149C14.6304 5.85096 15 6.67005 15 7.53052V12.0002L14.9961 12.1545C14.9183 13.6885 13.6883 14.9186 12.1543 14.9963L12 15.0002H4C2.34322 15.0002 1.00012 13.657 1 12.0002V7.53052C1 6.72365 1.32514 5.95326 1.89746 5.39087L2.01465 5.28149L6.01465 1.75122ZM8.86035 3.02661C8.36892 2.59299 7.63108 2.593 7.13965 3.02661L3.13965 6.55591C2.86017 6.80267 2.7002 7.15768 2.7002 7.53052V12.0002C2.70031 12.7181 3.2821 13.3 4 13.3H7V10.0002C7 9.44796 7.44772 9.00024 8 9.00024C8.55228 9.00024 9 9.44796 9 10.0002V13.3H12C12.7179 13.3 13.2997 12.7181 13.2998 12.0002V7.53052C13.2998 7.15767 13.1398 6.80267 12.8604 6.55591L8.86035 3.02661Z" fill="#393B3F"/>
</svg>
