<svg width="21" height="20" viewBox="0 0 21 20" fill="none" xmlns="http://www.w3.org/2000/svg">
  <rect x="0.134674" width="20" height="20" rx="10" fill="url(#paint0_linear_621_3897)" />
  <path
    d="M10.1347 16.9565C13.9766 16.9565 17.0912 14.2313 17.0912 10.8696H3.17815C3.17815 14.2313 6.29269 16.9565 10.1347 16.9565Z"
    fill="url(#paint1_linear_621_3897)" />
  <path
    d="M16.8334 11.1196C16.6832 14.1997 13.7725 16.7065 10.1342 16.7065C6.4961 16.7063 3.58619 14.1995 3.43596 11.1196H16.8334Z"
    stroke="black" stroke-opacity="0.3" stroke-width="0.5" />
  <rect x="3.61292" y="9.99998" width="13.0435" height="1.30435" fill="white" />
  <rect x="14.9173" y="8.99826" width="2.6087" height="5.21739" rx="1.30435"
    transform="rotate(-40 14.9173 8.99826)" fill="url(#paint2_linear_621_3897)" />
  <rect x="15.2695" y="9.02907" width="2.1087" height="4.71739" rx="1.05435"
    transform="rotate(-40 15.2695 9.02907)" stroke="black" stroke-opacity="0.2" stroke-width="0.5" />
  <rect width="2.6087" height="5.21739" rx="1.30435"
    transform="matrix(-0.766044 -0.642788 -0.642788 0.766044 5.35205 8.99826)"
    fill="url(#paint3_linear_621_3897)" />
  <rect x="-0.352208" y="0.0308142" width="2.1087" height="4.71739" rx="1.05435"
    transform="matrix(-0.766044 -0.642788 -0.642788 0.766044 4.74984 8.77907)" stroke="black"
    stroke-opacity="0.2" stroke-width="0.5" />
  <path
    d="M8.39557 6.52172C8.39557 5.80135 7.51961 5.21738 6.43905 5.21738C5.35849 5.21738 4.48253 5.80135 4.48253 6.52172"
    stroke="#4F0504" stroke-width="1.5" stroke-linecap="round" />
  <path
    d="M15.7869 6.52172C15.7869 5.80135 14.9109 5.21738 13.8303 5.21738C12.7498 5.21738 11.8738 5.80135 11.8738 6.52172"
    stroke="#4F0504" stroke-width="1.5" stroke-linecap="round" />
  <defs>
    <linearGradient id="paint0_linear_621_3897" x1="10.1347" y1="0" x2="10.1347" y2="20"
      gradientUnits="userSpaceOnUse">
      <stop stop-color="#F5DC30" />
      <stop offset="1" stop-color="#F89B56" />
    </linearGradient>
    <linearGradient id="paint1_linear_621_3897" x1="10.1347" y1="10.8696" x2="10.1347" y2="16.9565"
      gradientUnits="userSpaceOnUse">
      <stop stop-color="#AB0398" />
      <stop offset="1" stop-color="#CF079B" />
    </linearGradient>
    <linearGradient id="paint2_linear_621_3897" x1="16.2217" y1="8.99826" x2="16.2217" y2="14.2157"
      gradientUnits="userSpaceOnUse">
      <stop stop-color="#467EFF" />
      <stop offset="1" stop-color="#366BFF" />
    </linearGradient>
    <linearGradient id="paint3_linear_621_3897" x1="1.30435" y1="0" x2="1.30435" y2="5.21739"
      gradientUnits="userSpaceOnUse">
      <stop stop-color="#467EFF" />
      <stop offset="1" stop-color="#366BFF" />
    </linearGradient>
  </defs>
</svg>