<svg xmlns="http://www.w3.org/2000/svg" width="1280" height="540" viewBox="0 0 1280 540" role="img" aria-labelledby="title desc">
	<title id="title">Kindora preschool tour illustration</title>
	<desc id="desc">A warm preschool classroom scene with a teacher, children, plants, art, and playful learning materials.</desc>
	<defs>
		<linearGradient id="sky" x1="0" x2="1" y1="0" y2="1">
			<stop offset="0" stop-color="#E0F2FE"/>
			<stop offset="0.56" stop-color="#FFF7ED"/>
			<stop offset="1" stop-color="#FCE7F3"/>
		</linearGradient>
		<linearGradient id="floor" x1="0" x2="1" y1="0" y2="0">
			<stop offset="0" stop-color="#FDE68A"/>
			<stop offset="1" stop-color="#FBCFE8"/>
		</linearGradient>
		<linearGradient id="card" x1="0" x2="1" y1="0" y2="1">
			<stop offset="0" stop-color="#FFFFFF"/>
			<stop offset="1" stop-color="#F8FAFC"/>
		</linearGradient>
		<filter id="softShadow" x="-10%" y="-20%" width="120%" height="150%">
			<feDropShadow dx="0" dy="18" stdDeviation="18" flood-color="#0F172A" flood-opacity="0.16"/>
		</filter>
	</defs>

	<rect width="1280" height="540" fill="url(#sky)"/>
	<circle cx="1054" cy="102" r="58" fill="#FBBF24" opacity="0.85"/>
	<circle cx="1116" cy="96" r="26" fill="#FFFFFF" opacity="0.74"/>
	<circle cx="1005" cy="144" r="20" fill="#FFFFFF" opacity="0.66"/>

	<path d="M0 386 C198 338 351 408 515 362 C690 313 837 348 1007 320 C1124 300 1205 321 1280 296 L1280 540 L0 540 Z" fill="#BAE6FD" opacity="0.65"/>
	<path d="M0 416 C180 386 332 430 506 398 C704 361 847 392 1017 366 C1159 344 1214 354 1280 332 L1280 540 L0 540 Z" fill="url(#floor)"/>

	<g filter="url(#softShadow)">
		<rect x="82" y="88" width="440" height="310" rx="34" fill="url(#card)"/>
		<rect x="118" y="124" width="160" height="18" rx="9" fill="#0EA5E9"/>
		<rect x="118" y="162" width="318" height="18" rx="9" fill="#CBD5E1"/>
		<rect x="118" y="196" width="270" height="18" rx="9" fill="#E2E8F0"/>
		<rect x="118" y="248" width="116" height="86" rx="18" fill="#FDE68A"/>
		<circle cx="178" cy="291" r="20" fill="#FB7185"/>
		<rect x="258" y="248" width="116" height="86" rx="18" fill="#BBF7D0"/>
		<path d="M290 303 L313 273 L346 315" fill="none" stroke="#22C55E" stroke-width="12" stroke-linecap="round" stroke-linejoin="round"/>
		<rect x="398" y="248" width="82" height="86" rx="18" fill="#DBEAFE"/>
		<path d="M423 311 C441 270 460 270 464 311" fill="none" stroke="#3B82F6" stroke-width="10" stroke-linecap="round"/>
	</g>

	<g filter="url(#softShadow)">
		<rect x="760" y="92" width="360" height="250" rx="32" fill="#FFFFFF"/>
		<rect x="796" y="130" width="288" height="172" rx="24" fill="#ECFDF5"/>
		<path d="M836 256 C866 206 900 214 919 251 C944 188 1003 190 1032 256" fill="none" stroke="#34D399" stroke-width="18" stroke-linecap="round"/>
		<circle cx="844" cy="170" r="18" fill="#FBBF24"/>
		<path d="M792 316 H1088" stroke="#CBD5E1" stroke-width="8" stroke-linecap="round"/>
	</g>

	<g>
		<ellipse cx="642" cy="454" rx="298" ry="26" fill="#0F172A" opacity="0.12"/>

		<g transform="translate(500 178)">
			<circle cx="66" cy="50" r="38" fill="#FED7AA"/>
			<path d="M26 45 C33 11 58 -4 91 15 C111 27 115 61 100 83 C98 55 80 45 55 48 C43 50 34 48 26 45Z" fill="#7C2D12"/>
			<rect x="33" y="94" width="72" height="126" rx="28" fill="#0EA5E9"/>
			<path d="M34 124 C-9 142 -18 177 14 210" fill="none" stroke="#FED7AA" stroke-width="18" stroke-linecap="round"/>
			<path d="M104 124 C154 132 169 168 137 206" fill="none" stroke="#FED7AA" stroke-width="18" stroke-linecap="round"/>
			<path d="M53 218 V292" stroke="#1E3A8A" stroke-width="22" stroke-linecap="round"/>
			<path d="M88 218 V292" stroke="#1E3A8A" stroke-width="22" stroke-linecap="round"/>
			<path d="M45 106 C62 126 79 126 98 106" fill="none" stroke="#BAE6FD" stroke-width="10" stroke-linecap="round"/>
		</g>

		<g transform="translate(365 270)">
			<circle cx="54" cy="40" r="32" fill="#FECACA"/>
			<path d="M25 43 C27 11 57 0 83 19 C80 42 62 52 25 43Z" fill="#BE123C"/>
			<rect x="24" y="76" width="64" height="92" rx="24" fill="#FB7185"/>
			<path d="M26 99 C-4 116 -8 144 17 163" fill="none" stroke="#FECACA" stroke-width="15" stroke-linecap="round"/>
			<path d="M87 99 C121 109 127 139 103 161" fill="none" stroke="#FECACA" stroke-width="15" stroke-linecap="round"/>
			<path d="M43 168 V222" stroke="#9F1239" stroke-width="18" stroke-linecap="round"/>
			<path d="M70 168 V222" stroke="#9F1239" stroke-width="18" stroke-linecap="round"/>
		</g>

		<g transform="translate(720 260)">
			<circle cx="52" cy="42" r="32" fill="#FDBA74"/>
			<path d="M22 42 C31 13 54 2 81 20 C79 38 60 51 22 42Z" fill="#0F766E"/>
			<rect x="20" y="78" width="66" height="98" rx="25" fill="#22C55E"/>
			<path d="M24 102 C-4 118 -6 146 19 165" fill="none" stroke="#FDBA74" stroke-width="15" stroke-linecap="round"/>
			<path d="M83 102 C116 112 122 141 99 164" fill="none" stroke="#FDBA74" stroke-width="15" stroke-linecap="round"/>
			<path d="M40 176 V228" stroke="#166534" stroke-width="18" stroke-linecap="round"/>
			<path d="M68 176 V228" stroke="#166534" stroke-width="18" stroke-linecap="round"/>
		</g>
	</g>

	<g filter="url(#softShadow)">
		<rect x="878" y="366" width="232" height="92" rx="26" fill="#FFFFFF"/>
		<circle cx="918" cy="412" r="18" fill="#FBBF24"/>
		<circle cx="966" cy="412" r="18" fill="#34D399"/>
		<circle cx="1014" cy="412" r="18" fill="#60A5FA"/>
		<rect x="1048" y="395" width="34" height="34" rx="8" fill="#FB7185"/>
	</g>

	<g filter="url(#softShadow)">
		<rect x="170" y="394" width="186" height="78" rx="24" fill="#FFFFFF"/>
		<path d="M202 432 H324" stroke="#94A3B8" stroke-width="8" stroke-linecap="round"/>
		<path d="M220 410 H306" stroke="#F97316" stroke-width="8" stroke-linecap="round"/>
	</g>
</svg>
